#!OML:ASF F:\VICON\USERDATA\INSTALL\rory3\rory3.ASF
:FULLY-SPECIFIED
:DEGREES
606
root 0.91221 15.848 -4.10373 -18.7834 -43.0828 1.32033
lowerback 21.0913 0.401371 -8.02282
upperback 9.71522 -1.38051 -1.23036
thorax -1.01832 -1.07119 3.52564
lowerneck -4.13794 -16.2843 -22.3708
upperneck 8.78878 -22.3457 16.8974
head 7.83209 -10.886 6.36754
rclavicle -3.97569e-015 -1.74931e-014
rhumerus -18.6345 13.6156 -89.841
rradius 72.4543
rwrist 42.044
rhand -31.3576 10.7942
rfingers 7.12502
rthumb -4.62846 -19.1352
lclavicle -3.97569e-015 -1.74931e-014
lhumerus -22.3945 -9.58707 84.3658
lradius 66.8304
lwrist -18.4756
lhand -14.7086 19.6612
lfingers 7.12502
lthumb 11.4458 49.3288
rfemur -79.264 -39.4214 36.1064
rtibia 138.069
rfoot 0.148123 -16.5099
rtoes 22.4226
lfemur -45.0853 40.3976 -11.6886
ltibia 115.951
lfoot -1.62071 -17.8165
ltoes -16.3237
607
root 0.903049 15.8454 -4.10461 -18.7121 -42.9869 1.20181
lowerback 21.01 0.290291 -7.90806
upperback 9.65452 -1.49415 -1.22895
thorax -1.03589 -1.12 3.48546
lowerneck -3.93783 -16.4404 -22.2164
upperneck 8.79151 -22.5889 16.7132
head 7.8034 -11.0156 6.25439
rclavicle 1.88845e-014 1.59028e-014
rhumerus -18.5501 13.6488 -89.9369
rradius 72.1176
rwrist 42.1911
rhand -31.532 10.9091
rfingers 7.12502
rthumb -4.79685 -19.0166
lclavicle 1.88845e-014 1.59028e-014
lhumerus -22.5099 -9.50681 84.2696
lradius 66.8526
lwrist -18.3235
lhand -14.9282 19.8013
lfingers 7.12502
lthumb 11.234 49.4805
rfemur -79.2528 -39.6977 36.2709
rtibia 138.13
rfoot -0.21551 -15.9629
rtoes 20.184
lfemur -45.1117 40.2881 -11.5413
ltibia 115.996
lfoot -1.51356 -17.9321
ltoes -16.6533
608
root 0.895666 15.8436 -4.10805 -18.7075 -42.9223 1.22186
lowerback 20.9393 0.200877 -7.93209
upperback 9.55561 -1.60711 -1.20844
thorax -1.09361 -1.17017 3.54469
lowerneck -3.69912 -16.6311 -22.1533
upperneck 8.79938 -22.8735 16.4921
head 7.78267 -11.1704 6.13584
rclavicle 3.04141e-014 1.03368e-014
rhumerus -18.5379 13.9345 -89.9495
rradius 71.8698
rwrist 42.1042
rhand -31.6617 10.6774
rfingers 7.12502
rthumb -4.92206 -19.2454
lclavicle 3.04141e-014 1.03368e-014
lhumerus -22.7005 -9.32622 84.2686
lradius 66.923
lwrist -18.2338
lhand -14.8633 20.0298
lfingers 7.12502
lthumb 11.2966 49.7056
rfemur -79.3438 -39.8229 36.3171
rtibia 138.166
rfoot -0.265031 -15.1475
rtoes 18.2667
lfemur -45.2629 40.202 -11.5519
ltibia 116.024
lfoot -1.2572 -18.0429
ltoes -16.9941
609
root 0.887561 15.8394 -4.11259 -18.6286 -42.8896 1.15068
lowerback 20.8423 0.137063 -7.87825
upperback 9.50387 -1.66878 -1.18325
thorax -1.09583 -1.19671 3.55266
lowerneck -3.48955 -16.881 -22.011
upperneck 8.75309 -23.2276 16.2448
head 7.74847 -11.3555 5.98436
rclavicle -5.61567e-014 1.74931e-014
rhumerus -18.4733 14.1914 -89.937
rradius 71.7476
rwrist 41.8407
rhand -31.6572 10.2545
rfingers 7.12502
rthumb -4.91776 -19.6684
lclavicle -5.61567e-014 1.74931e-014
lhumerus -22.8131 -9.1909 84.2647
lradius 66.9886
lwrist -18.259
lhand -14.4467 20.0377
lfingers 7.12502
lthumb 11.6984 49.691
rfemur -79.4853 -39.8158 36.4765
rtibia 138.171
rfoot -0.373075 -14.3066
rtoes 17.5911
lfemur -45.5564 40.1763 -11.5039
ltibia 116.098
lfoot -1.00349 -18.2855
ltoes -18.0272
610
root 0.879086 15.8333 -4.11534 -18.5315 -42.8289 0.944464
lowerback 20.7896 0.0251127 -7.6311
upperback 9.52279 -1.76415 -1.23745
thorax -1.05198 -1.23756 3.37311
lowerneck -3.10707 -17.0624 -21.806
upperneck 8.45761 -23.5155 16.1319
head 7.602 -11.5136 5.90302
rclavicle -3.61788e-014 1.98785e-014
rhumerus -18.3241 14.2866 -90.0627
rradius 71.6614
rwrist 41.4858
rhand -31.4792 10.1411
rfingers 7.12502
rthumb -4.74585 -19.7858
lclavicle -3.61788e-014 1.98785e-014
lhumerus -22.8399 -9.05428 84.0749
lradius 67.0497
lwrist -18.3637
lhand -13.963 19.9334
lfingers 7.12502
lthumb 12.1647 49.5597
rfemur -79.4983 -39.9057 36.659
rtibia 138.155
rfoot -0.555219 -13.4676
rtoes 17.2727
lfemur -45.6647 40.1752 -11.257
ltibia 116.19
lfoot -0.893411 -18.6876
ltoes -19.1357
611
root 0.870586 15.829 -4.11946 -18.6016 -42.8151 0.93516
lowerback 20.7351 -0.0503888 -7.50538
upperback 9.57362 -1.83773 -1.3525
thorax -0.971928 -1.27292 3.19145
lowerneck -2.61136 -17.2265 -21.7161
upperneck 8.07768 -23.8023 16.1467
head 7.44097 -11.6761 5.88875
rclavicle 8.28932e-014 8.74653e-015
rhumerus -18.091 14.2843 -90.2541
rradius 71.5295
rwrist 41.1254
rhand -31.1923 10.3191
rfingers 7.12502
rthumb -4.46885 -19.6138
lclavicle 8.28932e-014 8.74653e-015
lhumerus -22.8001 -8.9131 83.8175
lradius 67.1136
lwrist -18.4345
lhand -13.8395 20.04
lfingers 7.12502
lthumb 12.2838 49.6592
rfemur -79.4239 -39.8898 36.6332
rtibia 138.138
rfoot -0.757512 -12.7421
rtoes 16.8079
lfemur -45.5399 40.2105 -11.0853
ltibia 116.229
lfoot -0.930844 -18.9568
ltoes -19.7269
612
root 0.859294 15.823 -4.1302 -18.6309 -43.1242 1.07669
lowerback 20.5595 -0.00849981 -7.60787
upperback 9.53495 -1.78897 -1.40518
thorax -0.927909 -1.25074 3.1789
lowerneck -2.09113 -17.3477 -21.9136
upperneck 7.76811 -24.066 16.401
head 7.36441 -11.8268 5.98793
rclavicle -2.40529e-014 7.15625e-015
rhumerus -17.9148 14.4727 -90.4043
rradius 71.3409
rwrist 40.7538
rhand -31.1507 10.3921
rfingers 7.12502
rthumb -4.42867 -19.5416
lclavicle -2.40529e-014 7.15625e-015
lhumerus -22.8763 -8.65047 83.6343
lradius 67.2093
lwrist -18.4176
lhand -13.9248 20.0736
lfingers 7.12502
lthumb 12.2016 49.6977
rfemur -79.5342 -39.1082 36.7388
rtibia 138.103
rfoot -0.856265 -12.4465
rtoes 16.4443
lfemur -45.5339 40.586 -10.9211
ltibia 116.264
lfoot -0.928793 -19.1825
ltoes -19.6709
613
root 0.84627 15.812 -4.14353 -18.6532 -43.7455 1.25529
lowerback 20.3758 0.134481 -7.79438
upperback 9.43864 -1.62328 -1.40514
thorax -0.949424 -1.16975 3.24804
lowerneck -1.75855 -17.4446 -22.0249
upperneck 7.66529 -24.2617 16.4722
head 7.33694 -11.9386 6.01401
rclavicle -3.37934e-014 3.4191e-014
rhumerus -17.859 14.8451 -90.4985
rradius 71.2109
rwrist 40.3235
rhand -31.2032 10.3794
rfingers 7.12502
rthumb -4.47933 -19.5533
lclavicle -3.37934e-014 3.4191e-014
lhumerus -23.0514 -8.26004 83.5398
lradius 67.3428
lwrist -18.3787
lhand -14.0895 20.1637
lfingers 7.12502
lthumb 12.0428 49.7972
rfemur -79.6427 -37.7815 36.9351
rtibia 138.059
rfoot -1.08634 -12.4592
rtoes 16.4008
lfemur -45.4505 41.3474 -10.5279
ltibia 116.323
lfoot -0.829232 -19.5105
ltoes -19.3073
614
root 0.835902 15.8073 -4.15025 -18.8043 -44.0894 1.43069
lowerback 20.2916 0.219182 -7.89979
upperback 9.39726 -1.52788 -1.44319
thorax -0.95907 -1.12309 3.24642
lowerneck -1.50266 -17.5879 -21.9951
upperneck 7.69106 -24.4969 16.3367
head 7.32369 -12.0682 5.943
rclavicle 3.53837e-014 -1.66979e-014
rhumerus -17.8101 15.0976 -90.5613
rradius 71.1104
rwrist 39.8765
rhand -31.1528 10.2557
rfingers 7.12502
rthumb -4.43072 -19.678
lclavicle 3.53837e-014 -1.66979e-014
lhumerus -23.2275 -7.92605 83.4865
lradius 67.5401
lwrist -18.3317
lhand -13.756 20.3135
lfingers 7.12502
lthumb 12.3644 49.9278
rfemur -79.503 -37.1154 36.8513
rtibia 137.995
rfoot -1.53897 -12.2952
rtoes 16.7185
lfemur -45.2214 41.7784 -10.2397
ltibia 116.338
lfoot -0.735508 -19.7465
ltoes -18.9146
615
root 0.827536 15.8089 -4.15495 -18.9206 -44.0774 1.53492
lowerback 20.2363 0.188364 -7.9643
upperback 9.39295 -1.57535 -1.47558
thorax -0.928651 -1.14893 3.25617
lowerneck -1.20415 -17.7288 -22.0321
upperneck 7.64149 -24.736 16.2801
head 7.29952 -12.2011 5.90877
rclavicle -7.03698e-014 5.40694e-014
rhumerus -17.6561 15.2736 -90.6256
rradius 70.9293
rwrist 39.5484
rhand -31.2152 9.98652
rfingers 7.12502
rthumb -4.4909 -19.9459
lclavicle -7.03698e-014 5.40694e-014
lhumerus -23.3039 -7.61481 83.4265
lradius 67.6629
lwrist -18.2668
lhand -12.6177 20.1421
lfingers 7.12502
lthumb 13.4616 49.6871
rfemur -79.3717 -37.0357 36.658
rtibia 137.917
rfoot -2.0632 -11.976
rtoes 17.4248
lfemur -45.1526 41.7328 -10.2055
ltibia 116.337
lfoot -0.694114 -19.9094
ltoes -18.8394
616
root 0.820694 15.8076 -4.16425 -18.936 -44.0414 1.53581
lowerback 20.2122 0.109279 -7.94926
upperback 9.4115 -1.67428 -1.51256
thorax -0.8873 -1.1994 3.22668
lowerneck -1.07143 -17.8672 -22.0094
upperneck 7.62436 -24.9478 16.2417
head 7.30312 -12.3098 5.86306
rclavicle 1.24638e-013 -1.59028e-015
rhumerus -17.4091 15.5032 -90.7399
rradius 70.731
rwrist 39.266
rhand -31.3847 9.71581
rfingers 7.12502
rthumb -4.65463 -20.2131
lclavicle 1.24638e-013 -1.59028e-015
lhumerus -23.3463 -7.3629 83.3169
lradius 67.788
lwrist -18.009
lhand -12.3199 19.9973
lfingers 7.12502
lthumb 13.7487 49.5231
rfemur -79.3925 -36.9187 36.6535
rtibia 137.843
rfoot -2.45979 -11.7412
rtoes 17.5201
lfemur -45.1876 41.6266 -10.161
ltibia 116.363
lfoot -0.646618 -20.0295
ltoes -19.0139
617
root 0.81663 15.8029 -4.17467 -18.8003 -44.0535 1.29652
lowerback 20.2061 0.00434232 -7.58943
upperback 9.49525 -1.74829 -1.61829
thorax -0.806522 -1.22937 2.92431
lowerneck -1.11386 -18.0441 -21.8443
upperneck 7.70681 -25.2117 16.2812
head 7.371 -12.4281 5.79555
rclavicle 3.85642e-014 7.15625e-015
rhumerus -17.0831 15.615 -90.9033
rradius 70.5305
rwrist 38.9012
rhand -31.5255 9.56036
rfingers 7.12502
rthumb -4.79053 -20.3655
lclavicle 3.85642e-014 7.15625e-015
lhumerus -23.3439 -7.24792 83.103
lradius 68.0108
lwrist -17.8138
lhand -12.5397 20.0701
lfingers 7.12502
lthumb 13.5369 49.6101
rfemur -79.3368 -36.6419 36.8789
rtibia 137.716
rfoot -2.90381 -11.7147
rtoes 17.6409
lfemur -45.2558 41.6007 -9.87214
ltibia 116.417
lfoot -0.508738 -20.0969
ltoes -18.9453
